<svg width="100%" height="100%" viewBox="0 0 11349 1552" version="1.1" xmlns="http://www.w3.org/2000/svg" xmlns:xlink="http://www.w3.org/1999/xlink"><g transform="matrix(1,0,0,1,-463.259,-555.124)"><g transform="matrix(1,0,0,1,-127.728,0)"><path d="M590.987,555.124L990.508,555.124L990.508,689.488L875.282,689.488L875.282,2107.12L706.213,2107.12L706.213,689.488L590.987,689.488L590.987,555.124Z" style="fill:rgb(24,189,205);fill-rule:nonzero;"/></g><g transform="matrix(1,0,0,1,-127.728,0)"><path d="M1086.13,555.124L1465.72,555.124L1465.72,689.488L1255.2,689.488L1255.2,1173.15L1448.44,1173.15L1448.44,1307.52L1255.2,1307.52L1255.2,1972.76L1465.72,1972.76L1465.72,2107.12L1086.13,2107.12L1086.13,555.124Z" style="fill:rgb(24,189,205);fill-rule:nonzero;"/></g><g transform="matrix(1,0,0,1,-127.728,0)"><path d="M1558.09,555.124L1773.32,555.124L1890.9,1662.26L1895.61,1662.26L2013.19,555.124L2228.42,555.124L2228.42,2107.12L2076.63,2107.12L2076.63,926.512L2071.92,926.512L1942.58,2107.12L1843.93,2107.12L1714.59,926.512L1709.88,926.512L1709.88,2107.12L1558.09,2107.12L1558.09,555.124Z" style="fill:rgb(24,189,205);fill-rule:nonzero;"/></g><g transform="matrix(1,0,0,1,-127.728,0)"><path d="M2321.61,555.124L2598.81,555.124C2785.16,555.124 2878.34,648.301 2878.34,834.657L2878.34,1128.52C2878.34,1314.88 2785.16,1408.06 2598.81,1408.06L2490.68,1408.06L2490.68,2107.12L2321.61,2107.12L2321.61,555.124ZM2598.81,1273.69C2672.13,1273.69 2709.97,1235.85 2709.97,1162.53L2709.97,800.651C2709.97,727.333 2672.13,689.488 2598.81,689.488L2490.68,689.488L2490.68,1273.69L2598.81,1273.69Z" style="fill:rgb(24,189,205);fill-rule:nonzero;"/></g><g transform="matrix(1,0,0,1,-127.728,0)"><path d="M2967.68,1844.18L2967.68,818.068C2967.68,628.779 3062.31,534.135 3251.62,534.135C3440.93,534.135 3535.56,628.779 3535.56,818.068L3535.56,1844.18C3535.56,2033.47 3440.93,2128.11 3251.62,2128.11C3062.31,2128.11 2967.68,2033.47 2967.68,1844.18ZM3366.49,1859.66L3366.49,802.587C3366.49,713.23 3328.65,668.545 3251.62,668.545C3174.59,668.545 3136.75,713.23 3136.75,802.587L3136.75,1859.66C3136.75,1949.02 3174.59,1993.7 3251.62,1993.7C3328.65,1993.7 3366.49,1949.02 3366.49,1859.66Z" style="fill:rgb(94,44,237);fill-rule:nonzero;"/></g><g transform="matrix(1,0,0,1,-127.728,0)"><path d="M3669.21,555.124L3946.41,555.124C4132.77,555.124 4225.95,648.301 4225.95,834.657L4225.95,1128.52C4225.95,1314.88 4132.77,1408.06 3946.41,1408.06L3838.28,1408.06L3838.28,2107.12L3669.21,2107.12L3669.21,555.124ZM3946.41,1273.69C4019.74,1273.69 4057.58,1235.85 4057.58,1162.53L4057.58,800.651C4057.58,727.333 4019.74,689.488 3946.41,689.488L3838.28,689.488L3838.28,1273.69L3946.41,1273.69Z" style="fill:rgb(94,44,237);fill-rule:nonzero;"/></g><g transform="matrix(1,0,0,1,-127.728,0)"><path d="M4316.51,555.124L4696.1,555.124L4696.1,689.488L4485.58,689.488L4485.58,1173.15L4678.82,1173.15L4678.82,1307.52L4485.58,1307.52L4485.58,1972.76L4696.1,1972.76L4696.1,2107.12L4316.51,2107.12L4316.51,555.124Z" style="fill:rgb(94,44,237);fill-rule:nonzero;"/></g><g transform="matrix(1,0,0,1,-127.728,0)"><path d="M4788.47,555.124L4957.54,555.124L4957.54,1972.76L5168.06,1972.76L5168.06,2107.12L4788.47,2107.12L4788.47,555.124Z" style="fill:rgb(94,44,237);fill-rule:nonzero;"/></g><g transform="matrix(1,0,0,1,-127.728,0)"><path d="M5280.07,555.124L5509.69,555.124L5685.73,2107.12L5516.66,2107.12L5485.98,1783.23L5303.78,1783.23L5273.1,2107.12L5114.93,2107.12L5280.07,555.124ZM5470.4,1655.63L5397.84,897.44L5393.13,897.44L5319.03,1655.63L5470.4,1655.63Z" style="fill:rgb(94,44,237);fill-rule:nonzero;"/></g><g transform="matrix(1,0,0,1,-127.728,0)"><path d="M5814.97,555.124L6214.49,555.124L6214.49,689.488L6099.27,689.488L6099.27,2107.12L5930.2,2107.12L5930.2,689.488L5814.97,689.488L5814.97,555.124Z" style="fill:rgb(231,11,133);fill-rule:nonzero;"/></g><g transform="matrix(1,0,0,1,-127.728,0)"><path d="M6307.67,1844.18L6307.67,818.068C6307.67,628.779 6402.31,534.135 6591.62,534.135C6780.92,534.135 6875.56,628.779 6875.56,818.068L6875.56,1844.18C6875.56,2033.47 6780.92,2128.11 6591.62,2128.11C6402.31,2128.11 6307.67,2033.47 6307.67,1844.18ZM6706.49,1859.66L6706.49,802.587C6706.49,713.23 6668.65,668.545 6591.62,668.545C6514.59,668.545 6476.75,713.23 6476.75,802.587L6476.75,1859.66C6476.75,1949.02 6514.59,1993.7 6591.62,1993.7C6668.65,1993.7 6706.49,1949.02 6706.49,1859.66Z" style="fill:rgb(231,11,133);fill-rule:nonzero;"/></g><g transform="matrix(1,0,0,1,-127.728,0)"><path d="M6980.05,1846.39L6980.05,1764.37L7139.21,1764.37L7139.21,1862.93C7139.21,1951.5 7177.05,1995.79 7253.85,1995.79C7330.65,1995.79 7368.49,1951.5 7368.49,1862.93C7368.49,1753.84 7323.71,1664.47 7207.1,1571.69C7058.12,1452.04 6988.25,1320.33 6988.25,1167.97C6988.25,976.213 7082.88,880.334 7272.19,880.334C7461.49,880.334 7556.13,976.213 7556.13,1167.97L7556.13,1227.62L7396.97,1227.62L7396.97,1152.49C7396.97,1063.92 7360.31,1019.63 7285.86,1019.63C7211.41,1019.63 7174.75,1063.92 7174.75,1152.49C7174.75,1247.61 7220.7,1332.93 7338.48,1425.72C7487.46,1545.36 7557.33,1679.28 7557.33,1836.07C7557.33,2033.02 7461.52,2131.5 7269.86,2131.5C7078.2,2131.5 6980.05,2033.02 6980.05,1846.39Z" style="fill:rgb(231,11,133);fill-rule:nonzero;"/></g><g transform="matrix(1,0,0,1,-127.728,0)"><path d="M7784.46,555.124L8164.05,555.124L8164.05,689.488L7953.53,689.488L7953.53,1173.15L8146.77,1173.15L8146.77,1307.52L7953.53,1307.52L7953.53,1972.76L8164.05,1972.76L8164.05,2107.12L7784.46,2107.12L7784.46,555.124Z" style="fill:rgb(242,112,53);fill-rule:nonzero;"/></g><g transform="matrix(1,0,0,1,-127.728,0)"><path d="M8256.42,555.124L8425.49,555.124L8425.49,1972.76L8636.01,1972.76L8636.01,2107.12L8256.42,2107.12L8256.42,555.124Z" style="fill:rgb(242,112,53);fill-rule:nonzero;"/></g><g transform="matrix(1,0,0,1,-127.728,0)"><path d="M8748.02,555.124L8977.64,555.124L9153.68,2107.12L8984.61,2107.12L8953.93,1783.23L8771.73,1783.23L8741.05,2107.12L8582.88,2107.12L8748.02,555.124ZM8938.35,1655.63L8865.79,897.44L8861.08,897.44L8786.98,1655.63L8938.35,1655.63Z" style="fill:rgb(242,112,53);fill-rule:nonzero;"/></g><g transform="matrix(1,0,0,1,-127.728,0)"><path d="M9284.02,555.124L9500.43,555.124L9637.27,1486.61L9641.98,1486.61L9641.98,555.124L9792.59,555.124L9792.59,2107.12L9615.19,2107.12L9438.54,996.496L9433.83,996.496L9433.83,2107.12L9284.02,2107.12L9284.02,555.124Z" style="fill:rgb(242,112,53);fill-rule:nonzero;"/></g><g transform="matrix(1,0,0,1,-127.728,0)"><path d="M9891.63,1844.18L9891.63,818.068C9891.63,628.779 9986.26,534.135 10175.6,534.135C10364.9,534.135 10459.5,628.779 10459.5,818.068L10459.5,1844.18C10459.5,2033.47 10364.9,2128.11 10175.6,2128.11C9986.26,2128.11 9891.63,2033.47 9891.63,1844.18ZM10290.4,1859.66L10290.4,802.587C10290.4,713.23 10252.6,668.545 10175.6,668.545C10098.5,668.545 10060.7,713.23 10060.7,802.587L10060.7,1859.66C10060.7,1949.02 10098.5,1993.7 10175.6,1993.7C10252.6,1993.7 10290.4,1949.02 10290.4,1859.66Z" style="fill:rgb(24,189,205);fill-rule:nonzero;"/></g><g transform="matrix(1,0,0,1,-127.728,0)"><path d="M10564,555.124L10780.4,555.124L10917.2,1486.61L10921.9,1486.61L10921.9,555.124L11072.5,555.124L11072.5,2107.12L10895.1,2107.12L10718.5,996.496L10713.8,996.496L10713.8,2107.12L10564,2107.12L10564,555.124Z" style="fill:rgb(24,189,205);fill-rule:nonzero;"/></g><g transform="matrix(1,0,0,1,-127.728,0)"><path d="M11172.8,1844.18L11172.8,818.068C11172.8,628.779 11267.4,534.135 11456.7,534.135C11646,534.135 11740.6,628.779 11740.6,818.068L11740.6,1844.18C11740.6,2033.47 11646,2128.11 11456.7,2128.11C11267.4,2128.11 11172.8,2033.47 11172.8,1844.18ZM11571.6,1859.66L11571.6,802.587C11571.6,713.23 11533.7,668.545 11456.7,668.545C11379.7,668.545 11341.8,713.23 11341.8,802.587L11341.8,1859.66C11341.8,1949.02 11379.7,1993.7 11456.7,1993.7C11533.7,1993.7 11571.6,1949.02 11571.6,1859.66Z" style="fill:rgb(24,189,205);fill-rule:nonzero;"/></g></g></svg>